<?xml version="1.0" encoding="iso-8859-1"?>
<!-- Generator: Adobe Illustrator 19.0.0, SVG Export Plug-In . SVG Version: 6.00 Build 0)  -->
<svg version="1.1" id="Capa_1" xmlns="http://www.w3.org/2000/svg" xmlns:xlink="http://www.w3.org/1999/xlink" x="0px" y="0px"
	 viewBox="0 0 512 512" style="enable-background:new 0 0 512 512;" xml:space="preserve">
<g>
	<path style="fill:#527F72;" d="M299.52,95.956l-20.289-40.648c-3.667-7.346-5.576-15.444-5.576-23.655V8.828
		c0-4.875-3.952-8.828-8.828-8.828h-17.655c-4.875,0-8.828,3.952-8.828,8.828v22.807c0,8.223-1.914,16.332-5.592,23.687
		l-20.361,40.723L299.52,95.956z"/>
	<path style="fill:#F18D46;" d="M512,300.138C512,417.103,445.264,512,362.991,512c-17.78-0.038-35.276-4.465-50.935-12.888
		c-34.499,16.838-74.758,17.195-109.55,0.971c-15.592,7.814-32.788,11.894-50.229,11.917C68.149,512,0,417.103,0,300.138
		S68.149,88.276,152.276,88.276c17.441,0.023,34.637,4.103,50.229,11.917c34.793-16.223,75.051-15.866,109.55,0.971
		c15.659-8.423,33.155-12.85,50.935-12.888C445.264,88.276,512,183.172,512,300.138z"/>
	<path style="fill:#805333;" d="M417.28,359.989l-43.343,42.814c-6.39,6.326-13.268,12.141-20.568,17.39
		c-66.407,47.481-157.379,40.133-215.305-17.39L94.72,359.989c-2.554-2.521-3.337-6.333-1.984-9.656
		c1.353-3.324,4.575-5.505,8.163-5.527h310.201c3.588,0.022,6.81,2.203,8.163,5.527C420.617,353.656,419.834,357.468,417.28,359.989
		L417.28,359.989z"/>
	<g>
		<path style="fill:#FAC176;" d="M329.716,494.698c-4.122,0.003-7.697-2.846-8.613-6.865c-0.916-4.018,1.07-8.136,4.786-9.92
			c2.233-1.073,4.457-2.233,6.698-3.47c0.303-0.172,0.617-0.323,0.94-0.453c4.482-2.61,8.819-5.462,12.991-8.543
			c9.784-7.205,18.593-15.648,26.207-25.116c1.98-2.458,5.122-3.671,8.24-3.182c3.118,0.489,5.737,2.607,6.869,5.553
			c1.132,2.946,0.604,6.273-1.385,8.724c-8.556,10.645-18.458,20.136-29.457,28.233c-4.98,3.676-10.167,7.064-15.535,10.147
			c-0.407,0.232-0.83,0.434-1.267,0.603c-2.225,1.211-4.44,2.353-6.664,3.418C332.337,494.399,331.035,494.697,329.716,494.698
			L329.716,494.698z"/>
		<path style="fill:#FAC176;" d="M180.44,495.672c-1.073-0.002-2.136-0.199-3.138-0.582c-1.357-0.534-2.687-1.137-3.983-1.806
			c-20.238-9.991-38.041-24.297-52.155-41.909c-2.004-2.441-2.55-5.768-1.433-8.722c1.117-2.954,3.728-5.086,6.846-5.59
			c3.118-0.504,6.268,0.696,8.259,3.148c12.497,15.62,28.263,28.313,46.19,37.19c0.957,0.474,1.716,0.871,2.552,1.19
			c3.981,1.516,6.312,5.658,5.542,9.847C188.351,492.627,184.7,495.67,180.44,495.672L180.44,495.672z"/>
		<path style="fill:#FAC176;" d="M132.405,167.724c-3.408-0.003-6.51-1.967-7.969-5.046c-1.459-3.08-1.015-6.724,1.141-9.363
			c14.113-17.613,31.916-31.917,52.155-41.905c1.295-0.672,2.625-1.276,3.983-1.81c4.556-1.733,9.654,0.556,11.387,5.112
			c1.733,4.556-0.555,9.654-5.111,11.388c-0.805,0.326-1.594,0.693-2.362,1.099c-18.001,8.884-33.833,21.61-46.379,37.28
			C137.574,166.537,135.059,167.729,132.405,167.724L132.405,167.724z"/>
		<path style="fill:#FAC176;" d="M379.595,167.638c-2.669,0.005-5.197-1.201-6.871-3.28c-7.603-9.456-16.397-17.888-26.164-25.086
			c-4.202-3.098-8.568-5.969-13.078-8.599c-0.308-0.121-0.608-0.264-0.897-0.427c-2.241-1.237-4.466-2.397-6.698-3.47
			c-2.85-1.36-4.757-4.139-4.999-7.288s1.216-6.187,3.824-7.968c2.608-1.78,5.969-2.031,8.813-0.658
			c2.25,1.078,4.491,2.237,6.741,3.461c0.411,0.155,0.808,0.343,1.19,0.56c5.383,3.092,10.584,6.49,15.577,10.177
			c10.982,8.09,20.869,17.57,29.414,28.203c2.14,2.643,2.571,6.28,1.107,9.349C386.092,165.682,382.995,167.637,379.595,167.638
			L379.595,167.638z"/>
	</g>
	<g>
		<path style="fill:#805333;" d="M156.912,196.247l69.068,52.706c3.101,2.394,4.265,6.538,2.865,10.196
			c-1.4,3.659-5.033,5.966-8.94,5.678h-69.068c-5.118,0.172-9.41-3.831-9.595-8.949v-52.706c0.239-3.589,2.45-6.749,5.74-8.203
			C150.272,193.515,154.097,194.007,156.912,196.247z"/>
		<path style="fill:#805333;" d="M355.089,196.247l-69.068,52.706c-3.101,2.394-4.265,6.538-2.865,10.196
			c1.4,3.659,5.033,5.966,8.94,5.678h69.068c5.118,0.172,9.411-3.831,9.595-8.949v-52.706c-0.239-3.589-2.45-6.749-5.74-8.203
			C361.729,193.515,357.903,194.007,355.089,196.247L355.089,196.247z"/>
		<path style="fill:#805333;" d="M256,317.793c-2.341,0.001-4.587-0.929-6.243-2.585c-1.656-1.656-2.585-3.901-2.585-6.243V291.31
			c0-4.875,3.952-8.828,8.828-8.828s8.828,3.952,8.828,8.828v17.655c0.001,2.341-0.929,4.587-2.585,6.243
			C260.587,316.864,258.342,317.794,256,317.793L256,317.793z"/>
	</g>
	<g>
		<rect x="167.724" y="331.034" style="fill:#F18D46;" width="44.138" height="48.552"/>
		<path style="fill:#F18D46;" d="M353.368,425.06c-13.16,11.502-28.134,20.745-44.314,27.354l-0.177-55.028l44.226-0.321
			L353.368,425.06z"/>
	</g>
</g>
<g>
</g>
<g>
</g>
<g>
</g>
<g>
</g>
<g>
</g>
<g>
</g>
<g>
</g>
<g>
</g>
<g>
</g>
<g>
</g>
<g>
</g>
<g>
</g>
<g>
</g>
<g>
</g>
<g>
</g>
</svg>
